PathFileType	4	(X/Y/Z)	53_2_61_p1_0-303_filt_butterworth.trc
DataRate	CameraRate	NumFrames	NumMarkers	Units	OrigDataRate	OrigDataStartFrame	OrigNumFrames
60.0	60.0	7	27	m	60.0	227	303
Frame#	Time	RHip			RKnee			RAnkle			RBigToe			RSmallToe			RHeel			LHip			LKnee			LAnkle			LBigToe			LSmallToe			LHeel			Neck			Head			Nose			RShoulder			RElbow			RWrist			RThumb			RIndex			RPinky			LShoulder			LElbow			LWrist			LThumb			LIndex			LPinky			
		X1	Y1	Z1	X2	Y2	Z2	X3	Y3	Z3	X4	Y4	Z4	X5	Y5	Z5	X6	Y6	Z6	X7	Y7	Z7	X8	Y8	Z8	X9	Y9	Z9	X10	Y10	Z10	X11	Y11	Z11	X12	Y12	Z12	X13	Y13	Z13	X14	Y14	Z14	X15	Y15	Z15	X16	Y16	Z16	X17	Y17	Z17	X18	Y18	Z18	X19	Y19	Z19	X20	Y20	Z20	X21	Y21	Z21	X22	Y22	Z22	X23	Y23	Z23	X24	Y24	Z24	X25	Y25	Z25	X26	Y26	Z26	X27	Y27	Z27	
227	3.783333333333333	0.4006231879492152	0.5887891555308108	0.686519440944588	0.409023511266042	0.7451588558869271	1.1322435702641371	0.36543808856169296	0.8875320010256602	1.5301783661167432	0.3263612689475008	0.753948227037161	1.5752552198671825	0.37721055025635325	0.767856610851413	1.5805896511085054	0.32585458627258285	0.987879309037727	1.5924388003638692	0.2192214647610775	0.6045331151594261	0.6818272952969135	0.16786981330358255	0.7821943866613893	1.142009203773535	0.1578846036409389	0.8844393114516083	1.5465970035194254	0.18091324099666367	0.7650721028531048	1.5794023083874922	0.11861665809617208	0.7788771055718647	1.5690379320456092	0.17405972268403103	0.9307563586203883	1.5850670771579203	0.3102656819059599	0.5250327003845439	0.19627696477973228	0.29960286837073663	0.3888244878078307	-0.035917865437503776	0.2937907430783419	0.36504815198684104	0.10998067577461383	0.4373318361802828	0.5239695212344632	0.23356403947457666	0.5069815303045558	0.6659037450460458	0.4619235770227531	0.4934764077830486	0.4502965007860708	0.537951709232228	0.4666046795150897	0.2682511720897828	0.5487440079962905	0.463251715733343	0.26611180894146114	0.5563751152445536	0.46915149078269835	0.2995824909007348	0.5940800518472538	0.15585547611610673	0.5769128478259078	0.2483680708155436	0.10735761214738745	0.5875109236587536	0.4910784126305183	0.0894296591654018	0.42108198688517795	0.6803994448442003	0.11694827252784064	0.34272474428647526	0.7361840744680439	0.10261915653047013	0.3013183110405779	0.7595110007959425	0.09671525295268416	0.3819633219057277	0.7854586558869632
228	3.8	0.39953148109648473	0.5731452214480429	0.6864871491850512	0.4089479555722426	0.745654509042979	1.132516646826633	0.3654254381669822	0.8878926092475721	1.5307957775631378	0.3260313998793924	0.753998716008741	1.5754686961410835	0.3783947816790652	0.7722081973280005	1.5810567804717632	0.3258214989906577	0.9885657433132686	1.5920766571452345	0.21968975282433323	0.6044247469131616	0.6817581308551619	0.1690693228739274	0.7819167725193436	1.1423989794859108	0.1575054623424528	0.8830726079983181	1.5461450864881041	0.18275900654613783	0.7650374670276293	1.580258028277942	0.11856422622911585	0.7792538802478031	1.569190106510096	0.17343399927307668	0.9311005503405613	1.5870816986182092	0.3112168223730878	0.521513346991435	0.19750185080233412	0.2999624588814034	0.38986952274490155	-0.03605343140472779	0.2937610137188469	0.36505007100142217	0.10997056052427186	0.4393708799527659	0.5199271519153881	0.23510413268013894	0.5033910964739845	0.6616092452808573	0.46627284811408426	0.49778559597632915	0.4427496944997741	0.5572580354008781	0.48332886899402017	0.2641566381785017	0.5724519194553016	0.4795881979447405	0.263342180675199	0.5801368457585722	0.48947247072222955	0.3099571948505482	0.6191633705035569	0.15596882999519088	0.5769019395910714	0.24962491006255086	0.1102745000625703	0.5846500082925989	0.49393319465210844	0.07534661914424869	0.4326705085068323	0.6967561549226096	0.09746577551874908	0.3541451897135237	0.7616753216850399	0.08233946186480126	0.3095983338764121	0.7796694554915153	0.07655954933195132	0.41156750051454327	0.8050620606085646
229	3.816666666666667	0.39896793920079776	0.5629127756282009	0.6853850464650039	0.40862141658639384	0.7470068632447409	1.1325237815455769	0.3654451151670081	0.8879971748594763	1.5291278362987903	0.325603069536979	0.7542018426499462	1.5757381737207523	0.37969863290490297	0.7770380517460339	1.5815542828418494	0.3257248417401099	0.9890644713901917	1.5910466803842178	0.21962247830910098	0.604240500863274	0.6820095555709471	0.17062130950255217	0.781284851041245	1.141421764581707	0.15752731825015925	0.8832569718224849	1.5462072123905506	0.18421439588627245	0.7650855607358298	1.5807664366765848	0.11813579303135158	0.7796849236162727	1.5694671911900846	0.1729564216148106	0.9312773858392904	1.5885906250473227	0.31149129409413034	0.5200650387840843	0.1980590964708436	0.2999798526009444	0.3897833845619092	-0.036001407205348994	0.29372044561439214	0.36505140256460544	0.10966339830560361	0.44049591761675116	0.5167074258985437	0.2364636494102083	0.5007955244801412	0.6587857534217862	0.4723256551413578	0.5004041212440381	0.434182619422518	0.5711877038012476	0.49674768478020975	0.2627811046615882	0.590831455521229	0.4920024751996138	0.2634785295623335	0.5999798254925874	0.5053387335319249	0.3307653540354182	0.6418820755711528	0.15603092341545316	0.5768190582470901	0.25070345939852584	0.11190923697952544	0.5824201324363399	0.4937009280259089	0.06570289285575104	0.44842575881608265	0.7067370364948004	0.08755587985852595	0.36097354059338077	0.7802514637062984	0.07154474262793864	0.31636115318359603	0.7911772022311806	0.06106187149330935	0.4387156951658173	0.814052777192859
230	3.8333333333333335	0.3983186014189123	0.5591908132741319	0.6839982744506561	0.40795534813144163	0.7489110562087946	1.1314658181475505	0.3654511210522479	0.8879808308700491	1.5260098560920003	0.32526337784048176	0.7546692673820398	1.576013724396979	0.38020158102079704	0.779231175554772	1.5818831877620012	0.3255458483542989	0.9892220762324268	1.5899719165837805	0.21940985556791254	0.6039864726252935	0.682134474827065	0.1717552903854607	0.7806179388920222	1.1388389253858116	0.1576603059776041	0.8837053167287	1.546335320094202	0.1848249748433081	0.7651516923814312	1.5809258683229555	0.11748919166004156	0.7784753624107983	1.569160927796845	0.17277768491933684	0.9312469658519607	1.5891312405099496	0.31143389793071957	0.5200113792496058	0.1980863013911477	0.2999368338771895	0.3894552978476895	-0.035895065955901966	0.29371037401812533	0.36501008954029723	0.108889798604321	0.4407545101124426	0.5153569911384546	0.23722862366660316	0.49975308433489085	0.6584067077543134	0.4780612559786056	0.5011431316835714	0.4280879561000647	0.5788913195131823	0.5042421156649823	0.2645357625200081	0.6054618040026747	0.4993283972073019	0.2681651018316291	0.6163298144859456	0.514391473628757	0.34962005676137803	0.6587313847188146	0.1560634702171614	0.5767851567602077	0.25130247162406516	0.11239642806630545	0.5816919784276208	0.49238425041639755	0.060554416036008536	0.4610441030823965	0.7103303738838213	0.08522338534805773	0.36696765244534624	0.7891708588196478	0.06812868646235598	0.32264353472923396	0.7960850220568377	0.05233089906747636	0.4581220677747229	0.8158343711600166
231	3.85	0.39702628299331866	0.5583705744821432	0.6827091174943526	0.40713461830207676	0.7499899070778709	1.129545848389015	0.3653499332798114	0.8880745177138311	1.5237811839306636	0.3251107662559457	0.7552388840629836	1.5762776156880798	0.3794273809552055	0.77728454453011	1.581942188264032	0.3253350462180022	0.9893816109470164	1.5900226758120017	0.21889598462483506	0.6035404722298323	0.6820912766500485	0.17212550318038214	0.7802122617001537	1.1354608223667084	0.15775549899893726	0.8839214617636353	1.546380208598029	0.1847952343742694	0.7651053829128387	1.5809355991352565	0.11689274089469594	0.7747481101268728	1.5681818886144812	0.17281410273009315	0.9311489788192286	1.5890268612904164	0.3113302019189245	0.5203476694374074	0.19763881392157953	0.29993754278543877	0.3892726165078027	-0.03581615644031996	0.29374582285446466	0.3649361155315187	0.10784575749865306	0.44063810534922343	0.5150703189985792	0.23677765698049325	0.4996736447831508	0.6593995755856779	0.482140625804745	0.5003588287065759	0.4280084204560096	0.5824299214411245	0.5041725593299783	0.2662951020324137	0.6172561857385943	0.5004462660234303	0.274071629609399	0.6286930719725995	0.5165904195234446	0.3595985688735382	0.6676091245214413	0.15608787951473097	0.5768071914460059	0.25142281077173895	0.11283030252338648	0.5823058829176377	0.4915933658228249	0.059110559492480695	0.4678425688006952	0.7097405475825286	0.08663554611410663	0.37452621553290416	0.7908394771080006	0.06866823707043006	0.3286458557824745	0.7972675211126244	0.05158083400548546	0.46578966780583075	0.8148507594111627
232	3.8666666666666663	0.3952115781945152	0.5579252425347239	0.6813951442680947	0.4063791242464951	0.750451045628021	1.1277742653538099	0.36508232201218693	0.8883694104595321	1.5238261335066468	0.3250951817663536	0.755484088662329	1.5764109241592452	0.37789926019149456	0.7727669318371165	1.5817118663270817	0.32512695729453917	0.9897905413793724	1.5913442384499286	0.21784874948593022	0.602862249320394	0.6819707674788666	0.17171506199169947	0.7800401287184091	1.132828687313068	0.15778644584457785	0.8839253884269063	1.5463727142678694	0.1843903185703811	0.7647896019069397	1.5808341326721964	0.11645755734180023	0.7696458900993584	1.5667203910612029	0.17293526742843177	0.9311471572784475	1.5888018918002127	0.3112712727593777	0.5205976780489839	0.19665290485914844	0.2999772904451498	0.3892537360900025	-0.03578189498799131	0.2937900909220026	0.364891789420149	0.10693736626836375	0.44050470851141044	0.5148281077479848	0.23504006731044996	0.4998524513960326	0.6603170397451731	0.4842438837832504	0.4984097072327346	0.43254296196380526	0.5841736599094546	0.49777489018121746	0.266019581690463	0.6263573905525613	0.4964464168206747	0.27686340105439317	0.6368925115511133	0.514290555782445	0.36189758049839593	0.6705068449483773	0.15611357995897004	0.5768539902627499	0.25090782131310607	0.1139688115085356	0.5835702025602983	0.49179408149601633	0.060779782417485294	0.4691997660256777	0.7071407055120185	0.08933912954002617	0.38226420708824155	0.7891763438613711	0.0714000095840072	0.33465718281197293	0.7966639330823788	0.0569827811606769	0.46133079058073156	0.8135821740951412
233	3.883333333333333	0.3935300230292726	0.5585066538282074	0.6803817555496184	0.4057247225126317	0.7528987484007053	1.126360116986579	0.3647410254529923	0.8886669930010269	1.5253605571542694	0.32512926567856787	0.7552779196029742	1.5763253870868326	0.3766533417004596	0.7687271080207703	1.5813116039161126	0.3248977231715927	0.9902585201634766	1.592854189155283	0.21649645847417928	0.6021678319195276	0.6818802976731387	0.17047885963589982	0.7798724234069112	1.1317538592334617	0.1577669961239234	0.8838366194596194	1.54636449151154	0.18376118475870262	0.7640493423257863	1.5804503517550301	0.11609239790486893	0.765572275181055	1.5649028630912438	0.17304765109953196	0.9312832720883021	1.5887212981645435	0.3112483608884438	0.5206953202304025	0.19539567586160156	0.3000305592889099	0.3892984461752769	-0.03577596220681486	0.2937844711479445	0.36490269521861446	0.10624258282404091	0.4404861115100316	0.5144819669987131	0.2329370826636128	0.499926953556662	0.6606034148710221	0.4849340278499933	0.495390775792634	0.43756743903923595	0.585270530437428	0.48777080510235377	0.2653338253001264	0.6326124212062391	0.4898473841466626	0.2764150973300263	0.6419988410240135	0.5096135695179206	0.35861105841142704	0.671167382196358	0.15613506390374768	0.5768999855788535	0.2494101797698416	0.1155193789020719	0.5848723649035718	0.49288835805843956	0.06563266024692863	0.4639501958984535	0.7039920506437318	0.09326866883239053	0.38718963630274356	0.78597433950633	0.07570906276886016	0.3407022581123331	0.795721142618012	0.06554365367914551	0.44768539896066295	0.8125482198444143
